<svg xmlns="http://www.w3.org/2000/svg" viewBox="0 0 180.87 180.87"><defs><style>.cls-1{fill:#4e6e37;}.cls-2{fill:#e7f3e7;}.cls-3{fill:#7dc242;}.cls-4{fill:#d6e9c1;}</style></defs><g id="Layer_2" data-name="Layer 2"><circle class="cls-1" cx="90.43" cy="90.43" r="90.43"/></g><g id="Layer_2_copy" data-name="Layer 2 copy"><circle class="cls-2" cx="90.43" cy="90.43" r="78.23"/></g><g id="Layer_2_copy_2" data-name="Layer 2 copy 2"><circle class="cls-3" cx="90.43" cy="90.43" r="46.95"/><path class="cls-4" d="M303.21,456.67c3.69,2.47,9.24,2.06,12-2a5.86,5.86,0,0,0,1-3.57c-.21-5.21-2.23-12.54-5-16.38a3.92,3.92,0,0,0-6.42,0c-3,4.24-4.42,12.4-4.14,17.34A5.89,5.89,0,0,0,303.21,456.67Z" transform="translate(-217.02 -331.42)"/><path class="cls-4" d="M344.79,427.27c2.63-3.58,2.45-9.15-1.46-12a6,6,0,0,0-3.53-1.14c-5.21,0-12.62,1.7-16.57,4.27a3.92,3.92,0,0,0-.26,6.42c4.11,3.18,12.2,4.94,17.15,4.86A5.88,5.88,0,0,0,344.79,427.27Z" transform="translate(-217.02 -331.42)"/><path class="cls-4" d="M333.38,404c-.53-3.66-3.88-6.88-7.91-6.32a4.87,4.87,0,0,0-2.77,1.37c-3.11,3-6.53,8.39-7.38,12.23a3.27,3.27,0,0,0,3.59,4c4.31-.5,10.16-4.18,13.06-7.12A4.91,4.91,0,0,0,333.38,404Z" transform="translate(-217.02 -331.42)"/><path class="cls-4" d="M288.48,397.78c-3.62.81-6.56,4.41-5.7,8.38a5,5,0,0,0,1.59,2.65c3.27,2.87,8.87,5.86,12.77,6.4a3.26,3.26,0,0,0,3.68-3.88c-.83-4.26-5-9.81-8.11-12.47A4.9,4.9,0,0,0,288.48,397.78Z" transform="translate(-217.02 -331.42)"/><path class="cls-4" d="M326.45,447c3.68-.42,7-3.68,6.56-7.72a5,5,0,0,0-1.3-2.81c-2.94-3.2-8.19-6.77-12-7.73a3.26,3.26,0,0,0-4.08,3.47c.37,4.32,3.88,10.28,6.73,13.27A4.89,4.89,0,0,0,326.45,447Z" transform="translate(-217.02 -331.42)"/><path class="cls-4" d="M281.85,441.64c.56,3.66,3.93,6.85,8,6.26a4.93,4.93,0,0,0,2.76-1.39c3.08-3.07,6.46-8.44,7.28-12.29a3.26,3.26,0,0,0-3.62-3.94c-4.3.53-10.13,4.25-13,7.21A4.92,4.92,0,0,0,281.85,441.64Z" transform="translate(-217.02 -331.42)"/><path class="cls-4" d="M271.47,415.91c-3,3.29-3.38,8.85.22,12.13a5.92,5.92,0,0,0,3.38,1.51c5.19.54,12.74-.4,16.93-2.56a3.91,3.91,0,0,0,.91-6.35c-3.75-3.59-11.62-6.17-16.55-6.6A5.9,5.9,0,0,0,271.47,415.91Z" transform="translate(-217.02 -331.42)"/><path class="cls-4" d="M312.84,386.78c-3.6-2.6-9.17-2.38-12,1.55a5.92,5.92,0,0,0-1.12,3.54c0,5.21,1.79,12.61,4.4,16.53a3.9,3.9,0,0,0,6.41.22c3.16-4.13,4.86-12.24,4.74-17.18A5.89,5.89,0,0,0,312.84,386.78Z" transform="translate(-217.02 -331.42)"/></g></svg>